<svg width="289" height="88" viewBox="0 0 289 88" fill="none" xmlns="http://www.w3.org/2000/svg">
<g filter="url(#filter0_i_1180_9795)">
<path d="M69.6977 18.4657C69.6977 18.4657 238.809 24.2836 274.192 21.1077C274.192 21.1077 286.138 16.8777 287.975 41.7375C289.812 66.5973 283.376 69.2393 275.573 69.7733C267.756 70.3073 77.0448 66.0773 69.6977 69.7733V18.4657Z" fill="#F8CF5F"/>
</g>
<path d="M69.6977 18.4657C69.6977 18.4657 238.809 24.2836 274.192 21.1077C274.192 21.1077 286.138 16.8777 287.975 41.7375C289.812 66.5973 283.376 69.2393 275.573 69.7733C267.756 70.3073 77.0448 66.0773 69.6977 69.7733V18.4657Z" stroke="#CB8530" stroke-miterlimit="10"/>
<g filter="url(#filter1_i_1180_9795)">
<path d="M105.408 28.2044C105.408 28.2044 95.9536 27.825 94.8146 39.0393C93.6755 50.2536 94.4301 60.3296 105.408 61.0744C116.386 61.8192 251.823 62.9435 260.907 61.0744C269.992 59.2054 269.992 52.8534 269.992 51.3638C269.992 49.8742 274.149 29.7081 259.398 28.2044C244.633 26.7148 105.408 28.2044 105.408 28.2044Z" fill="#BF8A4B"/>
</g>
<g filter="url(#filter2_i_1180_9795)">
<path d="M44.5809 87.2973C68.8091 87.2973 88.4499 67.9125 88.4499 44C88.4499 20.0875 68.8091 0.702637 44.5809 0.702637C20.3527 0.702637 0.711927 20.0875 0.711927 44C0.711927 67.9125 20.3527 87.2973 44.5809 87.2973Z" fill="white"/>
</g>
<g filter="url(#filter3_i_1180_9795)">
<path d="M44.5809 80.4536C65.1996 80.4536 81.9144 63.9566 81.9144 43.6065C81.9144 23.2565 65.1996 6.75952 44.5809 6.75952C23.9622 6.75952 7.24743 23.2565 7.24743 43.6065C7.24743 63.9566 23.9622 80.4536 44.5809 80.4536Z" fill="#2C2A22"/>
</g>
<g clip-path="url(#clip0_1180_9795)">
<path d="M45.2529 33.7601H28.3116C28.3116 33.7601 21.4739 33.717 21.0976 38.3215C20.4742 45.9656 20.8741 47.8785 21.0976 59.7719C21.0976 59.7719 21.372 68.5358 29.033 68.385C37.8938 68.2128 60.0299 68.385 60.0299 68.385C60.0299 68.385 68.7025 68.2164 69.071 60.2779C69.4396 52.3394 69.071 38.1528 69.071 38.1528C69.071 38.1528 69.071 33.7529 62.0608 33.7565C55.0507 33.7601 45.2529 33.7601 45.2529 33.7601Z" fill="#EAB320"/>
<path fill-rule="evenodd" clip-rule="evenodd" d="M70.8351 38.1248C70.835 38.1179 70.8348 38.1104 70.8346 38.1022C70.8341 38.0808 70.8331 38.0549 70.8315 38.0249C70.8283 37.965 70.8226 37.888 70.8121 37.7964C70.7913 37.6137 70.7517 37.3695 70.6759 37.0838C70.5248 36.515 70.2236 35.7588 69.6201 35.0015C68.3493 33.4069 66.0143 32.1395 62.0599 32.1415C58.5551 32.1433 54.3534 32.1442 51.0278 32.1446C49.365 32.1448 47.9213 32.145 46.8932 32.145L45.2533 32.1451C45.2533 32.1451 45.2529 32.1451 45.2529 33.76V32.1451H28.3116L28.3085 32.1451L28.2832 32.1451C28.2631 32.1452 28.2364 32.1454 28.2037 32.146C28.1382 32.147 28.0482 32.1492 27.9369 32.1539C27.7148 32.1631 27.4055 32.1821 27.0363 32.2208C26.3062 32.2974 25.3017 32.4557 24.261 32.7904C22.2059 33.4512 19.6023 34.9694 19.3382 38.2009C18.8858 43.7478 18.9654 46.3756 19.1285 51.7588C19.193 53.8899 19.2706 56.4528 19.3335 59.7996L19.3337 59.8089L19.334 59.8181L21.0976 59.7718C19.334 59.8181 19.334 59.8188 19.334 59.8195L19.3341 59.821L19.3342 59.8248L19.3346 59.8347L19.3348 59.8415C19.3351 59.8479 19.3354 59.8555 19.3358 59.8641C19.3369 59.8878 19.3385 59.9198 19.3409 59.9595C19.3457 60.0389 19.3536 60.1493 19.3665 60.2864C19.3922 60.56 19.4379 60.9425 19.5187 61.3979C19.6789 62.3003 19.9842 63.5297 20.5731 64.776C21.1603 66.0189 22.0642 67.3518 23.4651 68.3683C24.8974 69.4077 26.7541 70.0452 29.0709 69.9996C33.4759 69.914 41.203 69.9138 47.848 69.9354C51.1665 69.9461 54.2085 69.9623 56.421 69.9757C57.5272 69.9824 58.4259 69.9885 59.0479 69.9929C59.3589 69.995 59.6008 69.9968 59.7649 69.998L60.0147 69.9999C60.0149 69.9999 60.0149 69.9999 60.0299 68.385L60.0147 69.9999L60.0412 70.0001L60.0674 69.9996L60.0299 68.385C60.0674 69.9996 60.0683 69.9996 60.0692 69.9996L60.0759 69.9994L60.0877 69.9991C60.0966 69.9989 60.1076 69.9986 60.1207 69.9981C60.1468 69.9972 60.1813 69.9959 60.2234 69.9938C60.3077 69.9895 60.4232 69.9824 60.5656 69.9704C60.8499 69.9463 61.2445 69.9024 61.7144 69.8222C62.647 69.6629 63.9151 69.3538 65.2143 68.7468C67.8959 67.494 70.618 64.9926 70.8337 60.3464C71.0201 56.3318 71.0195 50.7641 70.9735 46.2234C70.9504 43.948 70.9157 41.9217 70.8869 40.4642C70.8724 39.7353 70.8594 39.1485 70.85 38.7436C70.8454 38.5411 70.8416 38.3841 70.8389 38.2776L70.8351 38.1248ZM60.0056 66.7698C60.0125 66.7695 60.0211 66.7691 60.0314 66.7686C60.0743 66.7665 60.1455 66.7622 60.241 66.7541C60.4324 66.7379 60.7182 66.7066 61.0672 66.647C61.7722 66.5266 62.6952 66.2974 63.6102 65.8699C65.357 65.0538 67.1555 63.5016 67.3083 60.2093C67.4905 56.2854 67.491 50.7906 67.445 46.2534C67.422 43.9898 67.3876 41.9733 67.3588 40.5227C67.3445 39.7976 67.3316 39.2141 67.3222 38.8121C67.3176 38.6112 67.3138 38.4556 67.3112 38.3505L67.3072 38.1917L67.3072 38.1913C67.3072 38.1912 67.3072 38.1912 69.071 38.1528L67.3072 38.1913L67.3069 38.1782C67.3064 38.1708 67.3052 38.1547 67.3025 38.131C67.2959 38.0731 67.2808 37.9736 67.2471 37.8468C67.1791 37.5908 67.0421 37.2473 66.7694 36.905C66.2876 36.3005 65.1175 35.3699 62.0618 35.3714C58.5564 35.3732 54.3541 35.3741 51.0283 35.3746C49.3654 35.3748 47.9215 35.3749 46.8934 35.375L45.2533 35.375C45.2533 35.375 45.2529 35.375 45.2529 33.76V35.375H28.3055L28.3048 35.375L28.3035 35.375C28.3029 35.375 28.3019 35.375 28.3008 35.375C28.295 35.375 28.2832 35.3751 28.2658 35.3754C28.2309 35.376 28.1737 35.3773 28.0972 35.3805C27.9439 35.3869 27.7161 35.4006 27.4384 35.4297C26.8747 35.4889 26.1463 35.6076 25.4305 35.8378C23.9728 36.3065 22.9693 37.0689 22.857 38.4417M60.0056 66.7698L59.6223 66.7669C59.4754 66.7659 59.292 66.7645 59.075 66.763C58.4519 66.7586 57.552 66.7526 56.4444 66.7458C54.2294 66.7324 51.1836 66.7162 47.8605 66.7054C41.2225 66.6839 33.4514 66.6838 28.9956 66.7704L28.9951 66.7704C27.4814 66.8002 26.431 66.3988 25.6571 65.8372C24.8519 65.2529 24.2508 64.4232 23.8118 63.4939C23.3744 62.5681 23.1323 61.6159 23.0016 60.8798C22.937 60.5159 22.9014 60.2149 22.8821 60.0099C22.8725 59.9076 22.8671 59.8299 22.8641 59.7809C22.8626 59.7565 22.8618 59.7393 22.8614 59.7299L22.8613 59.7288C22.7965 56.2863 22.7178 53.6871 22.6531 51.5516C22.4928 46.2604 22.4188 43.8151 22.857 38.4417M59.9848 66.7706C59.9847 66.7706 59.9846 66.7706 59.9848 66.7706V66.7706Z" fill="#F9E5BB"/>
<path fill-rule="evenodd" clip-rule="evenodd" d="M34.8821 31.9616C34.8375 31.5556 34.7935 31.0611 34.7639 30.5015C34.6779 28.8753 34.7157 26.7464 35.1832 24.6509C35.653 22.545 36.5302 20.5902 38.0223 19.1821C39.4699 17.8162 41.6271 16.8392 44.978 16.8706C48.3348 16.902 50.5316 17.9108 52.0239 19.3053C53.5559 20.7368 54.471 22.6943 54.9795 24.7811C55.486 26.8598 55.5633 28.9621 55.5077 30.5647C55.4892 31.0975 55.4562 31.5699 55.4207 31.9616H34.8821ZM56.8228 33.3972C58.3714 33.6235 58.3715 33.623 58.3717 33.6223L58.3719 33.6206L58.3727 33.6161L58.3751 33.6022C58.377 33.5908 58.3796 33.5751 58.3828 33.5552C58.3892 33.5156 58.3979 33.4594 58.4084 33.3878C58.4294 33.2445 58.4573 33.0393 58.4869 32.7808C58.5461 32.2643 58.6122 31.5324 58.6427 30.6559C58.7032 28.9124 58.6242 26.5505 58.0408 24.1561C57.4593 21.7699 56.3508 19.2457 54.2645 17.2962C52.1385 15.3096 49.1222 14.0382 45.0101 13.9997C40.8922 13.9611 37.8785 15.1943 35.771 17.1831C33.708 19.1299 32.646 21.6743 32.1101 24.0765C31.5719 26.4889 31.5377 28.8768 31.6311 30.6404C31.678 31.5272 31.7579 32.2682 31.8266 32.7912C31.8611 33.0529 31.8928 33.2607 31.9164 33.4056C31.9282 33.4781 31.938 33.5349 31.9451 33.575C31.9486 33.595 31.9515 33.6108 31.9536 33.6223L31.9562 33.6362L31.957 33.6408L31.9573 33.6424C31.9575 33.643 31.9576 33.6436 33.5026 33.3972L31.9576 33.6436L32.184 34.8327H58.1605L58.3714 33.6235L56.8228 33.3972Z" fill="#F9E5BB"/>
<path d="M55.184 56.8505H35.067C32.6597 56.8505 30.7072 55.0633 30.7072 52.8598V49.2781C30.7072 47.0746 32.6597 45.2874 35.067 45.2874H55.184C57.5913 45.2874 59.5438 47.0746 59.5438 49.2781V52.8634C59.5438 55.0669 57.5913 56.8505 55.184 56.8505Z" fill="#9D6627"/>
<path fill-rule="evenodd" clip-rule="evenodd" d="M35.067 46.5434C33.4175 46.5434 32.0794 47.7683 32.0794 49.2781V52.8598C32.0794 54.3696 33.4175 55.5944 35.067 55.5944H55.184C56.835 55.5944 58.1715 54.3717 58.1715 52.8633V49.2781C58.1715 47.7683 56.8334 46.5434 55.184 46.5434H35.067ZM29.3349 49.2781C29.3349 46.3809 31.9018 44.0312 35.067 44.0312H55.184C58.3491 44.0312 60.916 46.3809 60.916 49.2781V52.8633C60.916 55.7621 58.3475 58.1066 55.184 58.1066H35.067C31.9018 58.1066 29.3349 55.757 29.3349 52.8598V49.2781Z" fill="#F9E5BB"/>
<path fill-rule="evenodd" clip-rule="evenodd" d="M35.1064 49.7077C35.276 49.4541 35.638 49.3744 35.915 49.5296L40.7963 52.2643C41.0733 52.4195 41.1604 52.7508 40.9909 53.0044C40.8213 53.258 40.4593 53.3378 40.1822 53.1826L35.301 50.4479C35.024 50.2927 34.9368 49.9613 35.1064 49.7077Z" fill="#F9E5BB"/>
<path fill-rule="evenodd" clip-rule="evenodd" d="M37.9764 47.8463C38.3012 47.8405 38.5695 48.0768 38.5759 48.3741L38.6935 53.9152C38.6998 54.2125 38.4416 54.4581 38.1169 54.4639C37.7922 54.4697 37.5238 54.2334 37.5175 53.9361L37.3999 48.395C37.3936 48.0977 37.6517 47.8521 37.9764 47.8463Z" fill="#F9E5BB"/>
<path fill-rule="evenodd" clip-rule="evenodd" d="M40.7336 49.4436C40.9304 49.6801 40.8805 50.0179 40.6221 50.1981L36.0663 53.3742C35.8079 53.5543 35.4389 53.5086 35.2421 53.2721C35.0453 53.0356 35.0952 52.6978 35.3536 52.5176L39.9094 49.3415C40.1678 49.1614 40.5368 49.2071 40.7336 49.4436Z" fill="#F9E5BB"/>
<path fill-rule="evenodd" clip-rule="evenodd" d="M41.7559 49.5066C41.9254 49.2531 42.2875 49.1733 42.5645 49.3285L47.4457 52.0632C47.7228 52.2184 47.8099 52.5498 47.6403 52.8034C47.4708 53.057 47.1088 53.1367 46.8317 52.9815L41.9505 50.2468C41.6734 50.0916 41.5863 49.7602 41.7559 49.5066Z" fill="#F9E5BB"/>
<path fill-rule="evenodd" clip-rule="evenodd" d="M44.6255 47.6453C44.9503 47.6393 45.2188 47.8754 45.2253 48.1727L45.3469 53.7138C45.3534 54.0111 45.0954 54.2569 44.7707 54.2628C44.4459 54.2688 44.1774 54.0327 44.1709 53.7354L44.0494 48.1943C44.0428 47.897 44.3008 47.6512 44.6255 47.6453Z" fill="#F9E5BB"/>
<path fill-rule="evenodd" clip-rule="evenodd" d="M47.3828 49.2386C47.5798 49.475 47.5302 49.8128 47.272 49.9932L42.7201 53.1729C42.4619 53.3532 42.0929 53.3078 41.8958 53.0715C41.6988 52.8351 41.7484 52.4973 42.0066 52.317L46.5585 49.1373C46.8167 48.9569 47.1857 49.0023 47.3828 49.2386Z" fill="#F9E5BB"/>
<path fill-rule="evenodd" clip-rule="evenodd" d="M48.5661 49.697C48.7357 49.4434 49.0977 49.3636 49.3747 49.5188L54.256 52.2535C54.533 52.4087 54.6201 52.7401 54.4506 52.9937C54.281 53.2473 53.919 53.327 53.6419 53.1718L48.7607 50.4371C48.4837 50.2819 48.3965 49.9505 48.5661 49.697Z" fill="#F9E5BB"/>
<path fill-rule="evenodd" clip-rule="evenodd" d="M51.4361 47.8356C51.7609 47.8298 52.0292 48.0661 52.0356 48.3633L52.1532 53.9045C52.1595 54.2017 51.9013 54.4474 51.5766 54.4531C51.2519 54.4589 50.9835 54.2226 50.9772 53.9254L50.8596 48.3842C50.8533 48.087 51.1114 47.8413 51.4361 47.8356Z" fill="#F9E5BB"/>
<path fill-rule="evenodd" clip-rule="evenodd" d="M54.193 49.4289C54.39 49.6653 54.3405 50.0031 54.0823 50.1835L49.5303 53.3632C49.2721 53.5435 48.9031 53.4981 48.706 53.2618C48.509 53.0254 48.5586 52.6876 48.8168 52.5073L53.3687 49.3276C53.6269 49.1472 53.9959 49.1926 54.193 49.4289Z" fill="#F9E5BB"/>
</g>
<defs>
<filter id="filter0_i_1180_9795" x="69.1977" y="17.9661" width="219.593" height="54.6184" filterUnits="userSpaceOnUse" color-interpolation-filters="sRGB">
<feFlood flood-opacity="0" result="BackgroundImageFix"/>
<feBlend mode="normal" in="SourceGraphic" in2="BackgroundImageFix" result="shape"/>
<feColorMatrix in="SourceAlpha" type="matrix" values="0 0 0 0 0 0 0 0 0 0 0 0 0 0 0 0 0 0 127 0" result="hardAlpha"/>
<feOffset dy="2"/>
<feGaussianBlur stdDeviation="4.5"/>
<feComposite in2="hardAlpha" operator="arithmetic" k2="-1" k3="1"/>
<feColorMatrix type="matrix" values="0 0 0 0 0 0 0 0 0 0 0 0 0 0 0 0 0 0 0.25 0"/>
<feBlend mode="normal" in2="shape" result="effect1_innerShadow_1180_9795"/>
</filter>
<filter id="filter1_i_1180_9795" x="94.4245" y="27.5424" width="176.107" height="38.5541" filterUnits="userSpaceOnUse" color-interpolation-filters="sRGB">
<feFlood flood-opacity="0" result="BackgroundImageFix"/>
<feBlend mode="normal" in="SourceGraphic" in2="BackgroundImageFix" result="shape"/>
<feColorMatrix in="SourceAlpha" type="matrix" values="0 0 0 0 0 0 0 0 0 0 0 0 0 0 0 0 0 0 127 0" result="hardAlpha"/>
<feOffset dy="4"/>
<feGaussianBlur stdDeviation="2"/>
<feComposite in2="hardAlpha" operator="arithmetic" k2="-1" k3="1"/>
<feColorMatrix type="matrix" values="0 0 0 0 0 0 0 0 0 0 0 0 0 0 0 0 0 0 0.25 0"/>
<feBlend mode="normal" in2="shape" result="effect1_innerShadow_1180_9795"/>
</filter>
<filter id="filter2_i_1180_9795" x="0.711927" y="0.702637" width="87.738" height="90.5947" filterUnits="userSpaceOnUse" color-interpolation-filters="sRGB">
<feFlood flood-opacity="0" result="BackgroundImageFix"/>
<feBlend mode="normal" in="SourceGraphic" in2="BackgroundImageFix" result="shape"/>
<feColorMatrix in="SourceAlpha" type="matrix" values="0 0 0 0 0 0 0 0 0 0 0 0 0 0 0 0 0 0 127 0" result="hardAlpha"/>
<feOffset dy="4"/>
<feGaussianBlur stdDeviation="2"/>
<feComposite in2="hardAlpha" operator="arithmetic" k2="-1" k3="1"/>
<feColorMatrix type="matrix" values="0 0 0 0 0 0 0 0 0 0 0 0 0 0 0 0 0 0 0.25 0"/>
<feBlend mode="normal" in2="shape" result="effect1_innerShadow_1180_9795"/>
</filter>
<filter id="filter3_i_1180_9795" x="7.24743" y="6.75952" width="74.667" height="77.6941" filterUnits="userSpaceOnUse" color-interpolation-filters="sRGB">
<feFlood flood-opacity="0" result="BackgroundImageFix"/>
<feBlend mode="normal" in="SourceGraphic" in2="BackgroundImageFix" result="shape"/>
<feColorMatrix in="SourceAlpha" type="matrix" values="0 0 0 0 0 0 0 0 0 0 0 0 0 0 0 0 0 0 127 0" result="hardAlpha"/>
<feOffset dy="4"/>
<feGaussianBlur stdDeviation="2"/>
<feComposite in2="hardAlpha" operator="arithmetic" k2="-1" k3="1"/>
<feColorMatrix type="matrix" values="0 0 0 0 1 0 0 0 0 1 0 0 0 0 1 0 0 0 0.25 0"/>
<feBlend mode="normal" in2="shape" result="effect1_innerShadow_1180_9795"/>
</filter>
<clipPath id="clip0_1180_9795">
<rect width="52" height="56" fill="white" transform="translate(19 14)"/>
</clipPath>
</defs>
</svg>
