<svg width="289" height="88" viewBox="0 0 289 88" fill="none" xmlns="http://www.w3.org/2000/svg">
<g filter="url(#filter0_i_1180_9509)">
<path d="M69.6977 18.4657C69.6977 18.4657 238.809 24.2836 274.192 21.1077C274.192 21.1077 286.138 16.8777 287.975 41.7375C289.812 66.5973 283.376 69.2393 275.573 69.7733C267.756 70.3073 77.0448 66.0773 69.6977 69.7733V18.4657Z" fill="#F8CF5F"/>
</g>
<path d="M69.6977 18.4657C69.6977 18.4657 238.809 24.2836 274.192 21.1077C274.192 21.1077 286.138 16.8777 287.975 41.7375C289.812 66.5973 283.376 69.2393 275.573 69.7733C267.756 70.3073 77.0448 66.0773 69.6977 69.7733V18.4657Z" stroke="#CB8530" stroke-miterlimit="10"/>
<g filter="url(#filter1_i_1180_9509)">
<path d="M105.408 28.2044C105.408 28.2044 95.9536 27.825 94.8146 39.0393C93.6755 50.2536 94.4301 60.3296 105.408 61.0744C116.386 61.8192 251.823 62.9435 260.907 61.0744C269.992 59.2054 269.992 52.8534 269.992 51.3638C269.992 49.8742 274.149 29.7081 259.398 28.2044C244.633 26.7148 105.408 28.2044 105.408 28.2044Z" fill="#BF8A4B"/>
</g>
<g filter="url(#filter2_i_1180_9509)">
<path d="M44.5809 87.2973C68.8091 87.2973 88.4499 67.9125 88.4499 44C88.4499 20.0875 68.8091 0.702637 44.5809 0.702637C20.3527 0.702637 0.711927 20.0875 0.711927 44C0.711927 67.9125 20.3527 87.2973 44.5809 87.2973Z" fill="white"/>
</g>
<g filter="url(#filter3_i_1180_9509)">
<path d="M44.5809 80.4536C65.1996 80.4536 81.9144 63.9566 81.9144 43.6065C81.9144 23.2565 65.1996 6.75952 44.5809 6.75952C23.9622 6.75952 7.24743 23.2565 7.24743 43.6065C7.24743 63.9566 23.9622 80.4536 44.5809 80.4536Z" fill="#2C2A22"/>
</g>
<path d="M74.369 49.9713C74.3695 45.3221 72.9385 40.3587 70.1166 35.2202L69.8978 34.819L70.0625 34.392C70.0757 34.3582 71.3825 30.9687 72.316 27.3805C74.008 20.8647 72.8978 19.8446 72.7644 19.7508C71.8861 19.1228 69.4508 19.5617 66.2518 20.9324C63.5442 22.0906 61.1613 23.5171 61.137 23.5329L60.6326 23.8353L60.1391 23.5159C60.0435 23.4534 50.2683 17.2643 38.8429 19.8851L38.3001 20.0103L37.926 19.5918C37.9037 19.5671 35.6415 17.0422 33.0408 14.745C30.1976 12.2332 28.3401 11.2357 27.375 11.0884C27.1221 11.0488 26.9314 11.0674 26.7986 11.1329C26.5507 11.2549 25.2948 12.1974 24.8427 18.8236C24.563 22.9171 24.7355 26.9888 24.7549 27.44L24.7742 27.853L24.4937 28.1525C24.3744 28.2786 12.6558 40.9038 11.1842 53.0446C10.584 58.0011 12.6924 63.2879 17.1864 68.4659C17.2577 68.5487 17.3289 68.6293 17.4024 68.7121C21.121 72.8802 25.5741 76.0131 27.8991 77.512C29.924 78.8165 35.759 80.8607 42.3974 81.3174C48.1819 81.7163 56.4881 81.0586 63.3776 75.7001C63.7766 74.4753 64.4116 71.7075 63.6054 70.1813L63.1744 69.3656L63.9554 68.8916C64.0019 68.8645 68.6433 65.985 71.6937 60.4144C72.7201 58.5411 73.5143 56.2689 73.9502 54.2291C74.2289 52.8408 74.37 51.4193 74.369 49.9713Z" fill="#FFB02C"/>
<path d="M27.897 77.5413C29.9219 78.8458 35.7568 80.89 42.3953 81.3467C48.1797 81.7456 56.4859 81.0879 63.3755 75.7294C63.7745 74.5046 64.4095 71.7368 63.6033 70.2106L63.1723 69.3949L63.9533 68.9209C63.9998 68.8938 68.6412 66.0143 71.6916 60.4437C72.7179 58.5704 73.449 56.606 73.8849 54.5661C73.1967 53.1383 72.6963 52.1567 72.6829 52.1298C68.7053 46.8828 64.8311 49.1694 64.7935 49.1942C64.7603 49.2123 62.7531 50.2717 60.2905 49.348C59.4731 48.969 59.1355 48.7995 58.8464 48.5804C57.4388 47.5141 57.9131 48.0648 56.5872 46.3046C56.4557 46.1232 56.3264 45.935 56.1971 45.7356C54.2256 42.6912 51.7274 41.716 49.979 41.4365C49.9613 41.4343 49.9435 41.4321 49.928 41.4277C48.1641 41.155 46.8039 41.5074 46.6444 41.5528C40.2463 46.0791 37.9596 45.936 37.2186 45.8239C36.7855 45.6435 36.3636 45.481 35.9461 45.3229C35.6998 45.2586 35.6998 45.2586 35.5199 45.1986C34.9227 45.0075 35.0049 45.0409 34.1677 44.6979C25.1919 41.8085 20.2532 44.0402 20.2001 44.0651C15.1629 47.2647 14.3161 51.5081 14.4936 54.5022C14.6803 57.6154 15.9777 60.0604 16.0983 60.2822C16.3985 60.5237 20.7335 64.0859 18.6056 67.2806C18.2638 67.7935 17.7708 68.188 17.1843 68.4952C17.2556 68.578 17.3268 68.6586 17.4003 68.7414C21.1189 72.9072 25.572 76.0425 27.897 77.5413ZM45.1579 48.4697C45.339 48.2761 45.6405 48.2684 45.8319 48.4541C46.455 49.0582 47.0014 49.2989 47.4555 49.1695C48.0203 49.0083 48.439 48.2975 48.6808 47.7265C48.1234 47.5061 47.6252 47.0901 47.1905 46.4831C46.076 44.9265 46.2008 43.9092 46.5003 43.329C46.8723 42.6094 47.6824 42.2095 48.7247 42.2353C49.4898 42.253 51.0654 42.5824 51.2407 42.6177L51.2762 42.6266C52.3482 42.915 52.991 43.4405 53.189 44.1874C53.5151 45.421 52.3908 46.61 52.2605 46.7429C52.2097 46.7947 51.136 47.8533 49.7658 47.9093C49.733 48.6323 49.8223 49.3818 50.2713 49.6902C50.9138 50.1348 52.1492 49.6212 52.5719 49.3842C52.802 49.2555 53.0928 49.3398 53.2178 49.5751C53.3451 49.8082 53.2619 50.1026 53.0318 50.2335C52.8659 50.3261 51.6576 50.9765 50.546 50.805C50.2642 50.761 49.9867 50.6654 49.7377 50.4911C49.3376 50.2163 49.0654 49.7906 48.9236 49.2208C48.6169 49.6147 48.2168 49.955 47.714 50.1003C46.9143 50.3296 46.0594 50.0113 45.1737 49.1544C44.9823 48.9687 44.9745 48.6634 45.1579 48.4697Z" fill="white"/>
<path d="M64.0496 27.4029C65.1396 28.3445 67.0002 30.1928 67.3563 31.1457C67.475 31.4664 67.7509 31.6967 68.0837 31.7562C68.0903 31.7585 68.0992 31.7584 68.1059 31.7606C68.4298 31.8112 68.7575 31.6867 68.9717 31.4346C69.4088 30.9168 73.19 26.2958 71.3146 23.4418C70.8976 22.8101 70.2975 22.4506 69.5745 22.4013C67.3321 22.2514 64.4989 25.3945 63.9535 26.027C63.7857 26.2229 63.7002 26.4769 63.7189 26.7372C63.7354 26.9953 63.856 27.2351 64.0496 27.4029ZM69.4486 24.3346C69.5396 24.341 69.6239 24.3587 69.7287 24.5177C70.1346 25.136 69.9238 26.2929 69.1332 27.7748C68.8756 28.2583 68.589 28.7105 68.331 29.0885C67.6335 28.1591 66.6898 27.2192 66.0334 26.6018C67.1401 25.4869 68.6524 24.2833 69.4486 24.3346Z" fill="#333333"/>
<path d="M28.0138 24.2576C28.2113 24.2884 28.4375 24.2967 28.6991 24.2778C29.936 24.1863 32.5182 23.2822 32.8778 21.5974C32.9192 21.4019 32.9007 21.1977 32.8246 21.0138C31.9722 18.9715 30.3073 15.4882 28.7426 15.1184C28.2766 15.0076 27.8224 15.1214 27.4599 15.4368C25.6254 17.0434 26.5534 22.7044 26.7886 23.3479C26.9051 23.6596 27.2106 24.1323 28.0138 24.2576ZM28.5397 17.2068C29.1207 17.8178 30.1006 19.5365 30.899 21.3703C30.4882 21.8094 29.1775 22.3546 28.5013 22.3636C28.3973 21.8296 28.267 20.7772 28.2539 19.6615C28.2424 18.3392 28.397 17.5844 28.5397 17.2068Z" fill="#333333"/>
<path d="M49.4335 46.7948C49.6798 46.8434 49.847 47.0785 49.8147 47.3301C49.791 47.5142 49.774 47.7096 49.7658 47.9072C51.136 47.8534 52.2097 46.7925 52.2605 46.7407C52.3908 46.6101 53.5151 45.4189 53.189 44.1852C52.9911 43.4383 52.3483 42.9128 51.2762 42.6245L51.2407 42.6156C51.0632 42.578 49.4898 42.2508 48.7247 42.2331C47.6824 42.2073 46.8724 42.6073 46.5003 43.3269C46.2009 43.907 46.0761 44.9266 47.1905 46.481C47.6252 47.088 48.1234 47.5039 48.6808 47.7244C48.7775 47.4928 48.8477 47.2838 48.8849 47.1445C48.9461 46.8996 49.1894 46.7484 49.4335 46.7948ZM47.6779 43.9561C47.8011 43.7178 48.1887 43.5773 48.6876 43.5892C48.8961 43.5952 49.2089 43.6324 49.5439 43.6852C50.0764 43.7665 50.6622 43.8814 50.9485 43.9411C51.4901 44.0897 51.8368 44.3064 51.8975 44.5374C51.9897 44.8828 51.6039 45.4857 51.3168 45.7807C51.3079 45.7897 50.4507 46.6254 49.5435 46.552C49.0688 46.5153 48.6531 46.2293 48.263 45.6851C47.7281 44.9325 47.5083 44.2867 47.6779 43.9561Z" fill="#333333"/>
<path d="M49.6774 47.995L49.6815 47.9029C49.6897 47.7143 49.7067 47.5189 49.7326 47.3191C49.7584 47.1124 49.6202 46.9176 49.4183 46.8778C49.2164 46.8403 49.0151 46.9667 48.9626 47.1666C48.9189 47.3352 48.8421 47.5509 48.7541 47.7577L48.7234 47.8319L48.6478 47.803C48.0771 47.5758 47.5633 47.1487 47.1198 46.5305C45.9807 44.9403 46.1121 43.8893 46.4225 43.2866C46.81 42.5378 47.6511 42.1243 48.7222 42.1477C49.4717 42.1655 50.963 42.4705 51.2537 42.5324L51.2914 42.5413C52.3968 42.8385 53.0596 43.3842 53.2665 44.1625C53.6061 45.4432 52.4509 46.6637 52.3184 46.7988C52.272 46.8461 51.1762 47.934 49.7683 47.9902L49.6774 47.995ZM49.3467 46.7029C49.3799 46.7028 49.4154 46.705 49.4509 46.7116C49.7394 46.769 49.9356 47.0445 49.899 47.341C49.8796 47.5027 49.8647 47.6621 49.8542 47.8193C51.1532 47.723 52.1584 46.7253 52.2026 46.6825C52.3286 46.5541 53.4241 45.3989 53.1092 44.2079C52.9203 43.4924 52.2953 42.987 51.2543 42.7075L51.221 42.6987C50.9348 42.639 49.4568 42.3362 48.7206 42.3184C47.7116 42.2902 46.928 42.6766 46.5714 43.367C46.283 43.9269 46.1669 44.9128 47.2569 46.4336C47.6603 46.998 48.123 47.3938 48.6361 47.6167C48.7349 47.3717 48.7853 47.1942 48.805 47.1245C48.8684 46.8729 49.0961 46.7038 49.3467 46.7029ZM49.668 46.639C49.6258 46.6392 49.5837 46.6371 49.5393 46.635C49.0425 46.5962 48.6046 46.3013 48.1989 45.7346C47.6327 44.944 47.4152 44.2824 47.6045 43.9181C47.7454 43.646 48.1551 43.4943 48.6917 43.506C48.8825 43.5099 49.1731 43.5426 49.5591 43.602C50.0583 43.679 50.6308 43.7871 50.9659 43.8579C51.5497 44.0176 51.9075 44.2499 51.9795 44.5146C52.0919 44.9318 51.6243 45.5866 51.3791 45.8388C51.3702 45.8478 50.5705 46.6361 49.668 46.639ZM48.6236 43.6724C48.1935 43.6738 47.8547 43.7983 47.7534 43.9962C47.6015 44.293 47.8233 44.9209 48.336 45.6354C48.7105 46.1595 49.1106 46.4321 49.5542 46.4666C50.4215 46.5378 51.2523 45.7292 51.2611 45.7202C51.5394 45.4342 51.8987 44.8538 51.82 44.56C51.7661 44.3626 51.4327 44.1617 50.9288 44.0219C50.5982 43.9533 50.0323 43.8452 49.5353 43.7682C49.1582 43.7111 48.8742 43.6783 48.6902 43.6744C48.6658 43.6722 48.6436 43.6723 48.6236 43.6724Z" fill="#333333"/>
<path d="M45.1738 49.1543C46.0595 50.0113 46.9144 50.3295 47.714 50.1002C48.2168 49.9549 48.6147 49.6146 48.9237 49.2208C49.0655 49.7905 49.3376 50.2162 49.7378 50.491C49.989 50.6631 50.2643 50.761 50.5461 50.805C51.6554 50.9765 52.8659 50.326 53.0319 50.2334C53.262 50.1047 53.3452 49.8104 53.2179 49.5751C53.0907 49.342 52.8021 49.2554 52.5719 49.3841C52.1493 49.6189 50.9139 50.1325 50.2714 49.6901C49.8246 49.3818 49.7331 48.6322 49.7659 47.9093C49.6595 47.9141 49.5486 47.9145 49.4399 47.9036C49.3756 47.8993 49.3112 47.8905 49.2491 47.8818C49.0539 47.851 48.863 47.7999 48.6809 47.7264C48.4391 48.2974 48.0204 49.0082 47.4556 49.1694C47.0015 49.2988 46.4573 49.0581 45.832 48.454C45.6428 48.2706 45.3391 48.2783 45.1579 48.4697C44.9746 48.6633 44.9824 48.9686 45.1738 49.1543Z" fill="#333333"/>
<path d="M50.9425 51.2818C50.7895 51.2823 50.6342 51.2716 50.4789 51.2474C50.1084 51.1902 49.7753 51.0611 49.4863 50.8622C49.1818 50.6522 48.939 50.3746 48.7559 50.034C48.4708 50.2706 48.1632 50.4377 47.8331 50.5331C46.8718 50.8101 45.8726 50.4541 44.8645 49.4786C44.4973 49.1251 44.4841 48.5325 44.833 48.1609C45.0031 47.9808 45.2311 47.8768 45.4772 47.8715C45.7189 47.8685 45.9565 47.9575 46.1345 48.1298C46.6219 48.6019 47.0462 48.8183 47.3298 48.7365C47.6399 48.648 47.9908 48.2046 48.2677 47.5482L48.437 47.148L48.8367 47.3061C48.9899 47.3662 49.1497 47.4106 49.3117 47.4348C49.365 47.4436 49.4182 47.4502 49.4737 47.4545C49.5535 47.461 49.6422 47.4629 49.7464 47.4581L50.2297 47.4386L50.2072 47.928C50.1744 48.651 50.2871 49.158 50.5183 49.3166C50.8807 49.5691 51.8176 49.2877 52.3553 48.9897C52.57 48.87 52.8182 48.8423 53.0558 48.9111C53.2911 48.9799 53.4868 49.1387 53.6051 49.3583C53.8485 49.8065 53.6865 50.375 53.244 50.6234C53.0315 50.7453 52.0202 51.2783 50.9425 51.2818ZM49.1554 48.3198L49.3534 49.1116C49.4682 49.576 49.6757 49.9075 49.9869 50.1198C50.1648 50.2427 50.3757 50.3228 50.6131 50.3602C51.5871 50.512 52.6936 49.909 52.8175 49.839C52.8352 49.83 52.8396 49.8075 52.8306 49.7896C52.8284 49.7873 52.8239 49.7784 52.8106 49.7739C52.7973 49.7717 52.7884 49.774 52.7862 49.7763C52.7132 49.8169 51.0159 50.7473 50.0222 50.0591C49.5842 49.7574 49.3492 49.179 49.3195 48.3417C49.2729 48.3374 49.2264 48.3308 49.182 48.3242C49.1731 48.322 49.1642 48.322 49.1554 48.3198ZM45.5027 48.7671C45.4894 48.7672 45.4806 48.7762 45.4784 48.7784C45.4651 48.792 45.4652 48.8166 45.4786 48.8301C46.2419 49.5707 46.9525 49.8512 47.5904 49.6673C47.9448 49.5652 48.2765 49.3216 48.5723 48.9413L49.071 48.3044C49.0178 48.2933 48.9645 48.2823 48.9135 48.269C48.6229 48.8356 48.186 49.423 47.5724 49.5978C46.9567 49.7727 46.2682 49.4965 45.5227 48.7738C45.5227 48.7738 45.516 48.7671 45.5027 48.7671Z" fill="#333333"/>
<path d="M49.4376 47.9013C49.5485 47.91 49.6572 47.9096 49.7636 47.907C49.7717 47.7094 49.791 47.5141 49.8125 47.3299C49.8448 47.0784 49.6776 46.8432 49.4313 46.7946C49.1872 46.7483 48.9439 46.8995 48.8782 47.1444C48.8411 47.2837 48.7731 47.4927 48.6742 47.7242C48.8585 47.7977 49.0472 47.8487 49.2424 47.8795C49.309 47.8883 49.3733 47.8971 49.4376 47.9013Z" fill="#333333"/>
<path d="M73.885 54.5663C74.2648 55.3531 74.6984 56.2743 75.1411 57.2472C75.1696 57.1573 75.1981 57.0652 75.2266 56.9731C74.7705 55.9778 74.328 55.0408 73.9481 54.2586C73.9286 54.3619 73.9067 54.463 73.885 54.5663Z" fill="#333333"/>
<path d="M38.3762 42.2667C39.6241 42.2626 40.6319 41.2352 40.6272 39.9718C40.6225 38.7084 39.6071 37.6875 38.3592 37.6915C37.1113 37.6956 36.1035 38.723 36.1082 39.9864C36.1129 41.2498 37.1283 42.2707 38.3762 42.2667Z" fill="#333333"/>
<path d="M38.3766 42.3786C37.0705 42.3828 36.0022 41.311 35.9973 39.9865C35.9923 38.662 37.0505 37.5832 38.3587 37.579C39.6648 37.5748 40.7331 38.6467 40.738 39.9711C40.743 41.2956 39.6826 42.3744 38.3766 42.3786ZM38.3596 37.8035C37.1755 37.8073 36.2145 38.787 36.219 39.9858C36.2235 41.1845 37.1917 42.158 38.3757 42.1541C39.5598 42.1503 40.5208 41.1706 40.5163 39.9719C40.5118 38.7731 39.5436 37.7997 38.3596 37.8035Z" fill="#333333"/>
<path d="M62.1209 45.4449C63.3688 45.4409 64.3766 44.4134 64.3719 43.15C64.3672 41.8866 63.3518 40.8657 62.1039 40.8698C60.856 40.8738 59.8482 41.9013 59.8529 43.1646C59.8576 44.428 60.873 45.4489 62.1209 45.4449Z" fill="#333333"/>
<path d="M62.1213 45.5572C60.8153 45.5614 59.7469 44.4896 59.742 43.1651C59.7371 41.8406 60.7952 40.7618 62.1035 40.7576C63.4117 40.7534 64.4778 41.8252 64.4828 43.1497C64.4877 44.4742 63.4296 45.553 62.1213 45.5572ZM62.1043 40.9843C60.9202 40.9882 59.9593 41.9678 59.9637 43.1666C59.9682 44.3654 60.9364 45.3388 62.1205 45.335C63.3046 45.3311 64.2655 44.3515 64.261 43.1527C64.2566 41.9539 63.2906 40.9805 62.1043 40.9843Z" fill="#333333"/>
<defs>
<filter id="filter0_i_1180_9509" x="69.1977" y="17.9661" width="219.593" height="54.6184" filterUnits="userSpaceOnUse" color-interpolation-filters="sRGB">
<feFlood flood-opacity="0" result="BackgroundImageFix"/>
<feBlend mode="normal" in="SourceGraphic" in2="BackgroundImageFix" result="shape"/>
<feColorMatrix in="SourceAlpha" type="matrix" values="0 0 0 0 0 0 0 0 0 0 0 0 0 0 0 0 0 0 127 0" result="hardAlpha"/>
<feOffset dy="2"/>
<feGaussianBlur stdDeviation="4.5"/>
<feComposite in2="hardAlpha" operator="arithmetic" k2="-1" k3="1"/>
<feColorMatrix type="matrix" values="0 0 0 0 0 0 0 0 0 0 0 0 0 0 0 0 0 0 0.25 0"/>
<feBlend mode="normal" in2="shape" result="effect1_innerShadow_1180_9509"/>
</filter>
<filter id="filter1_i_1180_9509" x="94.4245" y="27.5424" width="176.107" height="38.5541" filterUnits="userSpaceOnUse" color-interpolation-filters="sRGB">
<feFlood flood-opacity="0" result="BackgroundImageFix"/>
<feBlend mode="normal" in="SourceGraphic" in2="BackgroundImageFix" result="shape"/>
<feColorMatrix in="SourceAlpha" type="matrix" values="0 0 0 0 0 0 0 0 0 0 0 0 0 0 0 0 0 0 127 0" result="hardAlpha"/>
<feOffset dy="4"/>
<feGaussianBlur stdDeviation="2"/>
<feComposite in2="hardAlpha" operator="arithmetic" k2="-1" k3="1"/>
<feColorMatrix type="matrix" values="0 0 0 0 0 0 0 0 0 0 0 0 0 0 0 0 0 0 0.25 0"/>
<feBlend mode="normal" in2="shape" result="effect1_innerShadow_1180_9509"/>
</filter>
<filter id="filter2_i_1180_9509" x="0.711927" y="0.702637" width="87.738" height="90.5947" filterUnits="userSpaceOnUse" color-interpolation-filters="sRGB">
<feFlood flood-opacity="0" result="BackgroundImageFix"/>
<feBlend mode="normal" in="SourceGraphic" in2="BackgroundImageFix" result="shape"/>
<feColorMatrix in="SourceAlpha" type="matrix" values="0 0 0 0 0 0 0 0 0 0 0 0 0 0 0 0 0 0 127 0" result="hardAlpha"/>
<feOffset dy="4"/>
<feGaussianBlur stdDeviation="2"/>
<feComposite in2="hardAlpha" operator="arithmetic" k2="-1" k3="1"/>
<feColorMatrix type="matrix" values="0 0 0 0 0 0 0 0 0 0 0 0 0 0 0 0 0 0 0.25 0"/>
<feBlend mode="normal" in2="shape" result="effect1_innerShadow_1180_9509"/>
</filter>
<filter id="filter3_i_1180_9509" x="7.24743" y="6.75952" width="74.667" height="77.6941" filterUnits="userSpaceOnUse" color-interpolation-filters="sRGB">
<feFlood flood-opacity="0" result="BackgroundImageFix"/>
<feBlend mode="normal" in="SourceGraphic" in2="BackgroundImageFix" result="shape"/>
<feColorMatrix in="SourceAlpha" type="matrix" values="0 0 0 0 0 0 0 0 0 0 0 0 0 0 0 0 0 0 127 0" result="hardAlpha"/>
<feOffset dy="4"/>
<feGaussianBlur stdDeviation="2"/>
<feComposite in2="hardAlpha" operator="arithmetic" k2="-1" k3="1"/>
<feColorMatrix type="matrix" values="0 0 0 0 1 0 0 0 0 1 0 0 0 0 1 0 0 0 0.25 0"/>
<feBlend mode="normal" in2="shape" result="effect1_innerShadow_1180_9509"/>
</filter>
</defs>
</svg>
